<svg width="27" height="24" viewBox="0 0 27 24" fill="none" xmlns="http://www.w3.org/2000/svg">
<g clip-path="url(#clip0_8_16)">
<path d="M7.05819 0H6.38014C6.29362 0 6.21157 0.0161599 6.13208 0.039122C5.73491 0.153618 5.44133 0.530526 5.44133 0.982651V1.39754V2.4595V3.012C5.44133 3.11466 5.46057 3.21166 5.48848 3.30453C5.608 3.70346 5.9597 3.99465 6.38014 3.99465H7.05819C7.57679 3.99465 7.997 3.55476 7.997 3.012V2.4595V1.39754V0.982651C7.997 0.439897 7.57679 0 7.05819 0Z" fill="#948D72"/>
<path d="M20.4044 0H19.7263C19.2077 0 18.7875 0.439897 18.7875 0.982651V1.39754V2.4595V3.012C18.7875 3.55476 19.2077 3.99465 19.7263 3.99465H20.4044C20.9229 3.99465 21.3432 3.55476 21.3432 3.012V2.4595V1.39754V0.982651C21.3429 0.439897 20.9227 0 20.4044 0Z" fill="#948D72"/>
<path d="M23.8677 2.4595H22.1889V3.01201C22.1889 3.96851 21.3882 4.74663 20.4041 4.74663H19.7261C18.742 4.74663 17.9413 3.96851 17.9413 3.01201V2.4595H8.84298V3.01201C8.84298 3.96851 8.04226 4.74663 7.0582 4.74663H6.38015C5.39604 4.74663 4.59537 3.96851 4.59537 3.01201V2.4595H3.13253C2.20071 2.4595 1.44502 3.08927 1.44502 3.86569V22.5939C1.44502 23.3717 2.20066 24 3.13253 24H23.8675C24.8002 24 25.555 23.3716 25.555 22.5939V3.86589C25.5552 3.08947 24.8004 2.4595 23.8677 2.4595ZM23.3445 21.9359L3.59419 21.9291V6.83032H23.3445V21.9359Z" fill="#948D72"/>
<path d="M15.6152 10.4689H20.8094C21.2603 10.4689 21.6249 10.0687 21.6249 9.57404C21.6249 9.07941 21.2601 8.67918 20.8094 8.67918H15.6152C15.1643 8.67918 14.7996 9.07941 14.7996 9.57404C14.7996 10.0685 15.1642 10.4689 15.6152 10.4689Z" fill="#948D72"/>
<path d="M15.6152 13.7012H20.8094C21.2603 13.7012 21.6249 13.301 21.6249 12.8064C21.6249 12.3118 21.2601 11.9116 20.8094 11.9116H15.6152C15.1643 11.9116 14.7996 12.3118 14.7996 12.8064C14.7996 13.301 15.1642 13.7012 15.6152 13.7012Z" fill="#948D72"/>
<path d="M15.6152 16.9336H20.8094C21.2603 16.9336 21.6249 16.5333 21.6249 16.0387C21.6249 15.5441 21.2601 15.1439 20.8094 15.1439H15.6152C15.1643 15.1439 14.7996 15.5441 14.7996 16.0387C14.7996 16.5333 15.1642 16.9336 15.6152 16.9336Z" fill="#948D72"/>
<path d="M15.6152 20.1661H20.8094C21.2603 20.1661 21.6249 19.7659 21.6249 19.2713C21.6249 18.7766 21.2601 18.3764 20.8094 18.3764H15.6152C15.1643 18.3764 14.7996 18.7766 14.7996 19.2713C14.7996 19.7659 15.1642 20.1661 15.6152 20.1661Z" fill="#948D72"/>
<path d="M6.41526 10.4689H11.6095C12.0604 10.4689 12.425 10.0687 12.425 9.57404C12.425 9.07941 12.0602 8.67918 11.6095 8.67918H6.41526C5.96435 8.67918 5.59973 9.07941 5.59973 9.57404C5.59978 10.0685 5.96435 10.4689 6.41526 10.4689Z" fill="#948D72"/>
<path d="M6.41526 13.7012H11.6095C12.0604 13.7012 12.425 13.301 12.425 12.8064C12.425 12.3118 12.0602 11.9116 11.6095 11.9116H6.41526C5.96435 11.9116 5.59973 12.3118 5.59973 12.8064C5.59978 13.301 5.96435 13.7012 6.41526 13.7012Z" fill="#948D72"/>
<path d="M6.41526 16.9336H11.6095C12.0604 16.9336 12.425 16.5333 12.425 16.0387C12.425 15.5441 12.0602 15.1439 11.6095 15.1439H6.41526C5.96435 15.1439 5.59973 15.5441 5.59973 16.0387C5.59973 16.5333 5.96435 16.9336 6.41526 16.9336Z" fill="#948D72"/>
<path d="M6.41526 20.1661H11.6095C12.0604 20.1661 12.425 19.7659 12.425 19.2713C12.425 18.7766 12.0602 18.3764 11.6095 18.3764H6.41526C5.96435 18.3764 5.59973 18.7766 5.59973 19.2713C5.59978 19.7659 5.96435 20.1661 6.41526 20.1661Z" fill="#948D72"/>
</g>
<defs>
<clipPath id="clip0_8_16">
<rect width="27" height="24" fill="white"/>
</clipPath>
</defs>
</svg>
