<svg width="25" height="24" viewBox="0 0 25 24" fill="none" xmlns="http://www.w3.org/2000/svg">
<g clip-path="url(#clip0_304_17)">
<path d="M13.7072 1.24457L16.5269 6.72943C16.723 7.11091 17.1021 7.37524 17.5407 7.43631L23.8459 8.31591C24.9504 8.47011 25.3911 9.77273 24.5922 10.5202L20.0297 14.7895C19.7126 15.0864 19.5677 15.5144 19.6428 15.9334L20.7196 21.962C20.9084 23.0178 19.7538 23.8228 18.7662 23.3247L13.1268 20.4786C12.7347 20.2809 12.2658 20.2809 11.8737 20.4786L6.23434 23.3247C5.24665 23.8233 4.09208 23.0178 4.28086 21.962L5.35773 15.9334C5.43282 15.5144 5.28785 15.0864 4.97078 14.7895L0.40831 10.5202C-0.390605 9.77223 0.0500499 8.4696 1.15456 8.31591L7.45983 7.43631C7.8984 7.37524 8.27752 7.11091 8.4736 6.72943L11.2933 1.24457C11.7866 0.283873 13.2134 0.283873 13.7072 1.24457Z" fill="#ED8A19"/>
</g>
<defs>
<clipPath id="clip0_304_17">
<rect width="25" height="24" fill="white"/>
</clipPath>
</defs>
</svg>
